<svg width="38" height="31" viewBox="0 0 38 31" fill="none" xmlns="http://www.w3.org/2000/svg">
<path d="M28.4531 12.6042C26.6968 12.6042 24.9799 13.125 23.5196 14.1007C22.0592 15.0765 20.921 16.4634 20.2489 18.0861C19.5768 19.7087 19.4009 21.4942 19.7436 23.2168C20.0862 24.9394 20.932 26.5217 22.1739 27.7636C23.4158 29.0055 24.9981 29.8513 26.7207 30.194C28.4433 30.5366 30.2288 30.3607 31.8515 29.6886C33.4741 29.0165 34.861 27.8783 35.8368 26.418C36.8125 24.9576 37.3334 23.2407 37.3334 21.4844C37.3307 19.13 36.3943 16.8728 34.7295 15.208C33.0647 13.5433 30.8075 12.6068 28.4531 12.6042ZM33.1557 18.7378L26.8699 25.0399C26.8167 25.0933 26.7535 25.1357 26.6839 25.1646C26.6143 25.1935 26.5397 25.2083 26.4643 25.2083C26.3889 25.2083 26.3143 25.1935 26.2447 25.1646C26.1751 25.1357 26.1119 25.0933 26.0587 25.0399L23.1777 22.1516C23.1243 22.0984 23.0819 22.0351 23.053 21.9655C23.024 21.8959 23.0091 21.8212 23.0091 21.7458C23.0091 21.6704 23.0239 21.5958 23.0528 21.5261C23.0817 21.4565 23.124 21.3932 23.1774 21.34C23.2308 21.2868 23.2942 21.2446 23.3639 21.2159C23.4336 21.1872 23.5083 21.1725 23.5837 21.1728C23.6591 21.173 23.7337 21.1881 23.8033 21.2173C23.8728 21.2464 23.9359 21.289 23.989 21.3425L26.4643 23.8242L32.3444 17.9288C32.3975 17.8752 32.4606 17.8327 32.5301 17.8035C32.5996 17.7744 32.6743 17.7593 32.7497 17.7591C32.825 17.7588 32.8998 17.7735 32.9695 17.8022C33.0392 17.8309 33.1026 17.873 33.156 17.9263C33.2093 17.9795 33.2517 18.0428 33.2806 18.1124C33.3095 18.1821 33.3243 18.2567 33.3243 18.3321C33.3243 18.4075 33.3094 18.4822 33.2804 18.5518C33.2515 18.6214 33.2091 18.6846 33.1557 18.7378Z" fill="#8800EC"/>
<path d="M12.3829 9.98128L13.2661 8.55543L13.2492 8.51626H11.3595C11.1607 8.51685 10.9652 8.46632 10.7916 8.36952C10.618 8.27271 10.4722 8.13289 10.3682 7.96349L8.99103 5.73924H8.95718L7.57986 7.96349C7.47594 8.1329 7.33018 8.27273 7.1566 8.36954C6.98302 8.46634 6.78746 8.51687 6.58871 8.51626H4.69905L4.68213 8.55543L5.56528 9.98128C5.68085 10.1665 5.74214 10.3805 5.74219 10.5988C5.74224 10.8171 5.68105 11.0311 5.56557 11.2164L4.68213 12.6425L4.69905 12.6817H6.58873C6.78749 12.6811 6.98306 12.7316 7.15666 12.8284C7.33025 12.9252 7.47604 13.065 7.58 13.2344L8.95718 15.4587H8.99103L10.3684 13.2344C10.4723 13.065 10.618 12.9252 10.7916 12.8284C10.9652 12.7316 11.1608 12.681 11.3595 12.6817H13.2492L13.2661 12.6425L12.3829 11.2166C12.2674 11.0314 12.2061 10.8175 12.206 10.5991C12.206 10.3808 12.2672 10.1669 12.3827 9.98156L12.3829 9.98128Z" fill="#8800EC"/>
<path d="M17.2813 16.3281C17.2817 16.1763 17.3422 16.0308 17.4496 15.9235C17.5569 15.8162 17.7024 15.7557 17.8542 15.7552H20.2289C20.6679 15.1264 21.1773 14.5497 21.7472 14.0365H17.8542C17.7022 14.0365 17.5565 13.9761 17.4491 13.8687C17.3416 13.7612 17.2813 13.6155 17.2813 13.4635C17.2813 13.3116 17.3416 13.1659 17.4491 13.0584C17.5565 12.951 17.7022 12.8906 17.8542 12.8906H23.2912C24.8008 11.983 26.5231 11.4894 28.2844 11.4598C30.0456 11.4301 31.7836 11.8653 33.3229 12.7216V1.71875C33.3226 1.26302 33.1414 0.826059 32.8191 0.503809C32.4969 0.181559 32.0599 0.000361116 31.6042 0H2.38544C1.92971 0.000361116 1.49275 0.181559 1.1705 0.503809C0.848246 0.826059 0.667048 1.26302 0.666687 1.71875L0.666687 19.4792C0.667048 19.9349 0.848246 20.3719 1.1705 20.6941C1.49275 21.0164 1.92971 21.1976 2.38544 21.1979H18.43C18.4722 19.7009 18.8501 18.2325 19.5357 16.901H17.8542C17.7024 16.9006 17.5569 16.8401 17.4496 16.7327C17.3422 16.6254 17.2817 16.4799 17.2813 16.3281ZM17.8542 4.29687H29.8854C30.0374 4.29687 30.1831 4.35724 30.2905 4.46468C30.398 4.57212 30.4584 4.71784 30.4584 4.86979C30.4584 5.02174 30.398 5.16746 30.2905 5.2749C30.1831 5.38235 30.0374 5.44271 29.8854 5.44271H17.8542C17.7022 5.44271 17.5565 5.38235 17.4491 5.2749C17.3416 5.16746 17.2813 5.02174 17.2813 4.86979C17.2813 4.71784 17.3416 4.57212 17.4491 4.46468C17.5565 4.35724 17.7022 4.29687 17.8542 4.29687ZM17.8542 7.16146H29.8854C30.0374 7.16146 30.1831 7.22182 30.2905 7.32926C30.398 7.4367 30.4584 7.58243 30.4584 7.73437C30.4584 7.88632 30.398 8.03205 30.2905 8.13949C30.1831 8.24693 30.0374 8.30729 29.8854 8.30729H17.8542C17.7022 8.30729 17.5565 8.24693 17.4491 8.13949C17.3416 8.03205 17.2813 7.88632 17.2813 7.73437C17.2813 7.58243 17.3416 7.4367 17.4491 7.32926C17.5565 7.22182 17.7022 7.16146 17.8542 7.16146ZM17.8542 10.026H27.0209C27.1728 10.026 27.3185 10.0864 27.426 10.1938C27.5334 10.3013 27.5938 10.447 27.5938 10.599C27.5938 10.7509 27.5334 10.8966 27.426 11.0041C27.3185 11.1115 27.1728 11.1719 27.0209 11.1719H17.8542C17.7022 11.1719 17.5565 11.1115 17.4491 11.0041C17.3416 10.8966 17.2813 10.7509 17.2813 10.599C17.2813 10.447 17.3416 10.3013 17.4491 10.1938C17.5565 10.0864 17.7022 10.026 17.8542 10.026ZM14.2391 12.0398C14.3494 12.2168 14.4105 12.42 14.4158 12.6284C14.4212 12.8369 14.3707 13.0429 14.2696 13.2253C14.1685 13.4077 14.0204 13.5596 13.8408 13.6655C13.6611 13.7714 13.4564 13.8272 13.2479 13.8273H11.3602L9.96512 16.0617C9.86076 16.2307 9.71491 16.3702 9.54143 16.467C9.36796 16.5638 9.17262 16.6146 8.97398 16.6146C8.77534 16.6146 8.58 16.5638 8.40652 16.467C8.23305 16.3702 8.0872 16.2307 7.98283 16.0617L6.60497 13.8388L4.70002 13.8273C4.49151 13.8272 4.28682 13.7714 4.10717 13.6655C3.92753 13.5596 3.77948 13.4077 3.67836 13.2253C3.57725 13.0429 3.52676 12.8369 3.53212 12.6284C3.53749 12.42 3.59851 12.2168 3.70887 12.0398L4.59117 10.6133C4.59396 10.609 4.59545 10.604 4.59545 10.599C4.59545 10.5939 4.59396 10.5889 4.59117 10.5846L3.70887 9.15807C3.59852 8.98116 3.53749 8.77794 3.53213 8.5695C3.52677 8.36106 3.57726 8.15498 3.67837 7.97262C3.77949 7.79027 3.92754 7.63828 4.10718 7.53242C4.28682 7.42656 4.49151 7.37068 4.70002 7.37057H6.58778L7.98283 5.1362C8.0872 4.96719 8.23305 4.82767 8.40652 4.7309C8.58 4.63414 8.77534 4.58335 8.97398 4.58335C9.17262 4.58335 9.36796 4.63414 9.54143 4.7309C9.71491 4.82767 9.86076 4.96719 9.96512 5.1362L11.343 7.35911L13.2479 7.37057C13.4564 7.37068 13.6611 7.42656 13.8408 7.53242C14.0204 7.63828 14.1685 7.79027 14.2696 7.97262C14.3707 8.15498 14.4212 8.36106 14.4158 8.5695C14.4105 8.77794 14.3494 8.98116 14.2391 9.15807L13.3568 10.5846C13.354 10.5889 13.3525 10.5939 13.3525 10.599C13.3525 10.604 13.354 10.609 13.3568 10.6133L14.2391 12.0398Z" fill="#8800EC"/>
</svg>
